HIERARCHY
ROOT Hips
{
	OFFSET 0.000000 0.000000 0.000000
	CHANNELS 6 Xposition Yposition Zposition Zrotation Yrotation Xrotation 
	JOINT LHipJoint
	{
		OFFSET 0.000000 0.000000 0.000000
		CHANNELS 3 Zrotation Yrotation Xrotation
		JOINT LeftUpLeg
		{
			OFFSET 8.178360 -10.767780 5.035740
			CHANNELS 3 Zrotation Yrotation Xrotation
			JOINT LeftLeg
			{
				OFFSET 14.688660 -40.356780 0.000000
				CHANNELS 3 Zrotation Yrotation Xrotation
				JOINT LeftFoot
				{
					OFFSET 15.373200 -42.237540 0.000000
					CHANNELS 3 Zrotation Yrotation Xrotation
					JOINT LeftToeBase
					{
						OFFSET 0.945840 -2.598660 13.935300
						CHANNELS 3 Zrotation Yrotation Xrotation
						End Site
						{
							OFFSET 0.000000 0.000000 0.000000
						}
					}
				}
			}
		}
	}
	JOINT RHipJoint
	{
		OFFSET 0.000000 0.000000 0.000000
		CHANNELS 3 Zrotation Yrotation Xrotation
		JOINT RightUpLeg
		{
			OFFSET -7.833120 -10.767780 5.035740
			CHANNELS 3 Zrotation Yrotation Xrotation
			JOINT RightLeg
			{
				OFFSET -15.255180 -41.913300 0.000000
				CHANNELS 3 Zrotation Yrotation Xrotation
				JOINT RightFoot
				{
					OFFSET -15.409560 -42.337380 0.000000
					CHANNELS 3 Zrotation Yrotation Xrotation
					JOINT RightToeBase
					{
						OFFSET -0.988380 -2.715540 14.178900
						CHANNELS 3 Zrotation Yrotation Xrotation
						End Site
						{
							OFFSET 0.000000 0.000000 0.000000
						}
					}
				}
			}
		}
	}
	JOINT LowerBack
	{
		OFFSET 0.000000 0.000000 0.000000
		CHANNELS 3 Zrotation Yrotation Xrotation
		JOINT Spine
		{
			OFFSET 0.169620 12.213540 -1.160280
			CHANNELS 3 Zrotation Yrotation Xrotation
			JOINT Spine1
			{
				OFFSET 0.340320 12.293100 -0.256500
				CHANNELS 3 Zrotation Yrotation Xrotation
				JOINT Neck
				{
					OFFSET 0.000000 0.000000 0.000000
					CHANNELS 3 Zrotation Yrotation Xrotation
					JOINT Neck1
					{
						OFFSET -0.325020 10.477440 1.032120
						CHANNELS 3 Zrotation Yrotation Xrotation
						JOINT Head
						{
							OFFSET 0.624420 10.568160 -0.743820
							CHANNELS 3 Zrotation Yrotation Xrotation
							End Site
							{
								OFFSET 0.000000 0.000000 0.000000
							}
						}
					}
				}
				JOINT LeftShoulder
				{
					OFFSET 0.000000 0.000000 0.000000
					CHANNELS 3 Zrotation Yrotation Xrotation
					JOINT LeftArm
					{
						OFFSET 20.174460 7.205340 -1.867260
						CHANNELS 3 Zrotation Yrotation Xrotation
						JOINT LeftForeArm
						{
							OFFSET 29.898000 -0.000000 -0.000000
							CHANNELS 3 Zrotation Yrotation Xrotation
							JOINT LeftHand
							{
								OFFSET 20.901360 -0.000000 -0.000000
								CHANNELS 3 Zrotation Yrotation Xrotation
								JOINT LeftFingerBase
								{
									OFFSET 0.000000 0.000000 0.000000
									CHANNELS 3 Zrotation Yrotation Xrotation
									JOINT LeftHandIndex1
									{
										OFFSET 4.291560 -0.000000 -0.000000
										CHANNELS 3 Zrotation Yrotation Xrotation
										End Site
										{
											OFFSET 0.000000 0.000000 0.000000
										}
									}
								}
								JOINT LThumb
								{
									OFFSET 0.000000 0.000000 0.000000
									CHANNELS 3 Zrotation Yrotation Xrotation
									End Site
									{
										OFFSET 0.000000 0.000000 0.000000
									}
								}
							}
						}
					}
				}
				JOINT RightShoulder
				{
					OFFSET 0.000000 0.000000 0.000000
					CHANNELS 3 Zrotation Yrotation Xrotation
					JOINT RightArm
					{
						OFFSET -18.819600 8.244300 -2.427900
						CHANNELS 3 Zrotation Yrotation Xrotation
						JOINT RightForeArm
						{
							OFFSET -31.451400 -0.000000 -0.000000
							CHANNELS 3 Zrotation Yrotation Xrotation
							JOINT RightHand
							{
								OFFSET -20.665020 -0.000000 -0.000000
								CHANNELS 3 Zrotation Yrotation Xrotation
								JOINT RightFingerBase
								{
									OFFSET 0.000000 0.000000 0.000000
									CHANNELS 3 Zrotation Yrotation Xrotation
									JOINT RightHandIndex1
									{
										OFFSET -3.735180 -0.000000 -0.000000
										CHANNELS 3 Zrotation Yrotation Xrotation
										End Site
										{
											OFFSET 0.000000 0.000000 0.000000
										}
									}
								}
								JOINT RThumb
								{
									OFFSET 0.000000 0.000000 0.000000
									CHANNELS 3 Zrotation Yrotation Xrotation
									End Site
									{
										OFFSET 0.000000 0.000000 0.000000
									}
								}
							}
						}
					}
				}
			}
		}
	}
}
MOTION
Frames:	4
Frame Time:	0.0333333
99.276438 107.292162 -59.139480 -0.148768 -41.325511 4.019263 -3.459140 1.104532 2.451068 -15.948083 -4.440568 -12.458306 0.772692 8.984012 26.944617 0.687052 -2.804112 -6.184736 0.188400 -2.795600 -7.710300 0.978397 -1.127568 1.236661 23.065191 5.402967 -10.766404 -2.258778 -9.775018 29.793013 -1.121723 2.973159 -8.318848 -0.144400 -2.448600 6.747200 0.208398 0.630134 4.581249 1.600468 0.886752 0.129701 0.130840 0.393529 -3.963791 -10.114473 -5.260268 -16.584793 6.553831 -5.520202 15.564845 3.913400 -2.826200 12.264500 -6.389641 -0.698979 -1.727707 -83.430417 4.737813 26.937596 15.818163 -22.519107 -3.864427 -0.810513 -2.345900 8.984545 12.238499 22.067697 5.339300 -7.125000 0.000000 0.000000 -17.619900 54.169900 -4.067400 5.235244 1.410362 -1.170296 83.152586 -3.138699 20.133171 -16.271345 24.155796 -3.773210 0.204519 -0.233388 7.043229 -10.784163 11.160600 -2.196300 7.125000 0.000000 0.000000 11.287600 -18.533000 7.256500 
99.087552 107.256066 -59.409582 -0.632912 -41.130183 4.114839 -3.254938 0.989159 2.209744 -15.489537 -4.650074 -14.320538 1.581011 10.266023 30.939886 0.692984 -3.124901 -5.768769 0.389500 -4.007700 -11.098400 0.967697 -1.104397 1.283108 23.682747 4.604789 -10.639168 -2.186673 -9.604224 29.337780 -1.157340 3.204378 -8.201694 -0.099500 -2.034600 5.601100 0.451598 0.677542 5.211399 1.677078 0.973349 0.223442 0.146169 0.444623 -4.089715 -10.127861 -5.160362 -16.425053 6.322566 -5.452344 16.390248 3.854100 -2.849400 12.555700 -6.350183 -0.740205 -1.716683 -83.213410 4.469424 27.197975 16.134799 -22.958193 -4.031640 -0.799403 -2.318865 8.574712 12.471057 21.710143 5.363900 -7.125000 0.000000 0.000000 -17.176300 53.841700 -3.820700 5.234022 1.421692 -1.162679 82.875254 -3.014470 21.029598 -16.424140 24.355191 -3.843184 0.210855 -0.206353 6.424778 -10.769043 10.565077 -2.075100 7.125000 0.000000 0.000000 11.323400 -19.152400 7.121300 
98.931750 107.362542 -59.564178 -2.214114 -40.463752 4.213965 -2.899763 0.899553 1.877816 -14.050809 -5.488000 -16.573861 2.961485 12.064717 36.920848 0.672538 -3.983182 -3.899862 0.955000 -6.222900 -17.432600 0.932914 -1.110578 1.351499 25.468122 4.461006 -8.666964 -1.873973 -8.994875 27.577935 -0.917749 2.206652 -7.652019 -0.202100 -2.895000 7.986500 1.718524 0.614822 6.570318 1.963558 1.032223 0.464989 -0.033803 0.468135 -4.361485 -10.291355 -5.053884 -15.828501 6.095146 -5.367022 17.136550 3.827800 -2.890700 12.719300 -6.291081 -0.757138 -1.715187 -83.535745 4.597698 27.032350 16.749028 -23.775730 -4.351646 -0.779333 -2.301153 8.735262 12.576465 21.510264 5.353600 -7.125000 0.000000 0.000000 -16.984600 53.648400 -3.694800 5.256463 1.431025 -1.130789 82.663627 -2.539085 21.113552 -16.222710 24.061324 -3.744160 0.223986 -0.207071 6.139813 -11.078420 10.473224 -2.119300 7.125000 0.000000 0.000000 11.102000 -19.228600 6.957400 
98.665860 107.375778 -59.660430 -2.771331 -39.619765 3.892799 -2.517251 0.758960 1.485287 -13.155449 -6.506195 -19.450330 4.542229 13.731349 43.053894 0.607330 -5.784526 0.746815 0.498000 -4.524200 -12.556300 0.896523 -1.103721 1.435890 26.308562 3.356639 -7.507420 -1.636067 -8.484023 26.124724 -0.748013 1.597578 -6.882026 -0.124700 -2.276500 6.270400 2.164940 0.601370 7.446543 2.071472 1.077158 0.728388 -0.070009 0.499458 -4.311415 -10.423052 -5.046097 -15.184001 5.904249 -5.446099 17.894720 3.785300 -2.995200 12.885100 -6.228954 -0.772446 -1.703885 -83.529237 4.567788 27.151977 17.528636 -24.821371 -4.780718 -0.631845 -2.379005 7.544784 11.584110 22.047901 5.002800 -7.125000 0.000000 0.000000 -18.374900 54.012100 -4.178800 5.262189 1.440019 -1.090989 82.592736 -1.901128 20.837400 -16.018111 23.780618 -3.650870 0.217119 -0.211529 6.513990 -10.951048 10.456333 -2.091300 7.125000 0.000000 0.000000 11.195500 -19.248000 7.013400 
